<svg xmlns="http://www.w3.org/2000/svg" xmlns:xlink="http://www.w3.org/1999/xlink" width="39" height="38" viewBox="0 0 39 38"><defs><clipPath id="clip-path"><rect width="39" height="38" fill="none"></rect></clipPath></defs><g id="Repeat_Grid_14" data-name="Repeat Grid 14" clip-path="url(#clip-path)"><g transform="translate(-1100 -525.393)"><path id="Fill_158" data-name="Fill 158" d="M24.364,38H14.635a1.268,1.268,0,0,1,0-2.533h3.649V27.775a10.861,10.861,0,0,1-6.168-3.457,17.932,17.932,0,0,1-3.93-6.673l-.134.019a4.886,4.886,0,0,1-.714.069,7.463,7.463,0,0,1-7.3-7.6c0-.559-.013-1.058-.024-1.5C-.019,7.2-.041,6.329.438,5.818c.7-.751,2.515-.751,6.89-.751h.011A4.974,4.974,0,0,1,12.2,0H26.8a4.974,4.974,0,0,1,4.864,5.066h.006c4.379,0,6.192,0,6.9.751.479.512.457,1.379.421,2.817-.011.441-.024.94-.024,1.5a7.463,7.463,0,0,1-7.3,7.6,4.88,4.88,0,0,1-.715-.07l-.131-.019a17.942,17.942,0,0,1-3.931,6.673,10.861,10.861,0,0,1-6.168,3.457v7.692h3.649a1.268,1.268,0,0,1,0,2.533ZM33.621,7.594l-.808,0c-.354,0-.735,0-1.153,0v7.6a4.744,4.744,0,0,0,3.44-1.486,5.137,5.137,0,0,0,1.426-3.58c0-1.218-.016-1.818-.376-2.152S35.11,7.594,33.621,7.594Zm-28.242,0c-1.489,0-2.169.054-2.529.388s-.377.934-.377,2.152A4.975,4.975,0,0,0,7.339,15.2V7.6c-.417,0-.8,0-1.147,0Z" transform="translate(1100 525.393)" fill="#012133"></path></g></g></svg>