<svg xmlns="http://www.w3.org/2000/svg" id="Group_2184" data-name="Group 2184" width="44" height="44" viewBox="0 0 44 44"><rect id="Rectangle_195" data-name="Rectangle 195" width="44" height="44" rx="7" fill="#012133"></rect><path id="Path_3217" data-name="Path 3217" d="M256.909,238.289a37.772,37.772,0,0,1-3.723-2.683c-1.163-1.159-.786-4.876-.784-4.942a1.581,1.581,0,0,1,1.376-1.722,40.526,40.526,0,0,1,18.931-.185c1.8.368,2.445.692,2.538,2.817a54.254,54.254,0,0,1-.078,6.2c-.044.409-.2,2.281-1.91.978-.415-.315-1.06-.581-.965-1.468.084-.778.1-2.5.115-3.587a2.215,2.215,0,0,0-.661-1.606h0a3.243,3.243,0,0,0-1.546-.636c-3.492-.939-9.858-1.073-13.552.095-.349.11-1.8.368-1.472,3.4a4.846,4.846,0,0,0,1.309,2.969A3.13,3.13,0,0,0,256.909,238.289Z" transform="translate(-242.641 -218.455)" fill="#fff" fill-rule="evenodd"></path><path id="Path_3218" data-name="Path 3218" d="M296.488,497.84a2.762,2.762,0,0,0-1.18-3.6c-.671-.469-1.485-.983-2.156-1.452,0,0,2.574,1.536.915,3.6-.806,1-4.02,3.784-5.228,3.67-2.364-.223-7.556-4.546-9.009-5.607a.347.347,0,0,0-.522.428,19.367,19.367,0,0,0,8.45,8.257,2.424,2.424,0,0,0,2.63-.333A31.969,31.969,0,0,0,296.488,497.84Z" transform="translate(-268.035 -468.439)" fill="#fff" fill-rule="evenodd"></path><path id="Path_3219" data-name="Path 3219" d="M420.2,380.586h0a1.511,1.511,0,0,0,.292,2.246c1.989,1.376,5.586,3.866,7.353,5.1a2.817,2.817,0,0,1,1.207,3.575,20.879,20.879,0,0,0,1.853-2.512c.781-1.28.433-2.476-1.383-3.66l-7.187-5.006A1.619,1.619,0,0,0,420.2,380.586Z" transform="translate(-400.598 -362.104)" fill="#fff" fill-rule="evenodd"></path><path id="Path_3220" data-name="Path 3220" d="M261.225,292.171h0a1.475,1.475,0,0,0-.334-2.061c-1.769-1.273-5.048-3.633-6.715-4.829-2.007-1.459-2.7-3.856-2.9-6.509a45.305,45.305,0,0,0-.019,6.592c.153,1.746,1.349,2.644,2.771,3.662l5,3.61A1.671,1.671,0,0,0,261.225,292.171Z" transform="translate(-241.514 -266.598)" fill="#fff" fill-rule="evenodd"></path></svg>